<svg id="Layer_1" data-name="Layer 1" xmlns="http://www.w3.org/2000/svg" viewBox="0 0 373.11 90.97"><defs><style>.cls-1{font-size:87.31px;font-family:BigNoodleTitling, BigNoodleTitling;}.cls-2{fill:#d80351;}</style></defs><title>logo</title><text class="cls-1" transform="translate(0 74.99)">CARDS GAME</text><path class="cls-2" d="M407.75,101.46h-34a5.09,5.09,0,0,0-5.08,5.09v52.66a5.09,5.09,0,0,0,5.08,5.09h33.9a5.1,5.1,0,0,0,5.09-5.09V106.55A5,5,0,0,0,407.75,101.46Zm-28.47,7.93L377,111.7a.24.24,0,0,1-.4,0l-2.31-2.31a1.63,1.63,0,0,1-.07-2.24,1.58,1.58,0,0,1,2.25,0l.26.26.27-.26a1.57,1.57,0,0,1,2.24,0A1.57,1.57,0,0,1,379.28,109.39Zm20.15,24-8,8a1,1,0,0,1-1.32,0l-7.93-7.93a5.57,5.57,0,0,1-.19-7.73,5.46,5.46,0,0,1,4-1.72,5.66,5.66,0,0,1,3.9,1.59l.92.92.93-.92a5.43,5.43,0,0,1,3.9-1.59,5.46,5.46,0,0,1,3.83,9.39Zm7.86,25.1a1.55,1.55,0,0,1-1.12.46,1.53,1.53,0,0,1-1.12-.46l-.27-.26-.26.26a1.61,1.61,0,0,1-2.25,0,1.64,1.64,0,0,1,0-2.24l2.31-2.32a.25.25,0,0,1,.4,0l2.31,2.32A1.69,1.69,0,0,1,407.29,158.48Z" transform="translate(-39.67 -89.16)"/></svg>